<?xml version="1.0" standalone="no"?>
<!DOCTYPE svg PUBLIC "-//W3C//DTD SVG 20010904//EN"
 "http://www.w3.org/TR/2001/REC-SVG-20010904/DTD/svg10.dtd">
<svg version="1.0" xmlns="http://www.w3.org/2000/svg"
 width="832.000000pt" height="832.000000pt" viewBox="0 0 832.000000 832.000000"
 preserveAspectRatio="xMidYMid meet">
<metadata>
Created by potrace 1.11, written by Peter Selinger 2001-2013
</metadata>
<g transform="translate(0.000000,832.000000) scale(0.100000,-0.100000)"
fill="#000000" stroke="none">
<path d="M312 4123 l3 -3898 3850 0 3850 0 3 3898 2 3897 -3855 0 -3855 0 2
-3897z m3949 2007 c239 -25 410 -74 634 -185 168 -84 285 -164 417 -285 703
-648 788 -1744 196 -2523 -270 -355 -646 -593 -1089 -689 -90 -19 -135 -22
-324 -22 -191 -1 -235 2 -333 22 -486 98 -903 387 -1185 822 -397 613 -400
1441 -7 2040 87 132 161 219 285 338 371 354 894 533 1406 482z"/>
</g>
</svg>
