<?xml version="1.0" encoding="UTF-8"?><svg viewBox="0 0 700 330.325444" version="1.1" xmlns="http://www.w3.org/2000/svg" xmlns:xlink="http://www.w3.org/1999/xlink"><g fill="none" fill-rule="evenodd"><path d="M700 0c-16.232 17.21-32.463 36.014-48.694 55.23l-4.427 5.25-4.426 5.264-15.492 18.468-4.427 5.266-4.426 5.253c-11.804 13.981-23.607 27.753-35.41 40.86 22.54 25.292 45.083 47.927 67.625 69.465l3.655 3.483c1.828 1.737 3.656 3.468 5.484 5.192l3.655 3.442 3.656 3.427 3.655 3.415 3.656 3.404 3.656 3.394 3.655 3.386 5.484 5.067 3.656 3.372c-87.33 15.586-174.66 15.303-261.99 11.703l-6.634-.28c-2.21-.095-4.421-.192-6.632-.29l-6.633-.302-6.633-.31-6.632-.319-6.633-.325-9.95-.497-29.239-1.493c-12.181-.622-30.453-1.497-54.815-2.623l-14.915 31.53c-9.178 18.651-16.06 32.853-20.646 42.606-47.776 1.051-95.55 2.6-143.324 4.21L72.863 327.7c-23.887.803-47.773 1.589-71.66 2.303L0 330.325l1.763-22.965 1.763-23.117 1.763-23.227 6.464-85.455 1.763-23.205 1.175-15.405 1.763-22.98 1.763-22.793.588-7.549c2.037-.337 4.08-.668 6.124-.99 28.174-4.428 56.345-7.24 84.521-8.907 56.563-3.334 113.124-2.098 169.687.24l6.787.286 3.394.146 6.787.3 4.3-7.959c10.033-18.588 20.065-37.341 30.098-56.725 78.378-.872 156.756-3.135 235.135-5.656l22.393-.727 55.985-1.839 22.393-.729C677.606.707 688.803.349 700 0z" fill="#FFF"/><path d="M297.466 181.213c6.81-12.156 13.624-24.15 20.433-36.112l-2.053-.153a4407.48 4407.48 0 00-21.735-1.572c-20.79-1.45-41.581-2.716-62.37-3.583a17410.74 17410.74 0 00-2.895 37.582c21.618.828 43.24 2.098 64.855 3.58 1.254.084 2.511.171 3.765.258m-194.645-41.02a14980.54 14980.54 0 00-4.448 59.66c15.328-1.299 30.658-2.167 45.986-2.678 39.263-1.37 43.482-60.448 4.458-59.44-15.334.417-30.665 1.206-45.996 2.459m587.714 102.444c-35.948-33.141-71.893-66.716-107.838-107.048C621.797 92.175 660.895 41.46 700 0 576.834 3.845 453.669 8.649 330.503 10.02c-11.467 22.153-22.93 43.481-34.398 64.684-62.219-2.777-124.435-4.64-186.655-.972-28.176 1.666-56.347 4.48-84.52 8.907-2.044.322-4.088.653-6.125.99C12.535 164.006 6.269 248.989 0 330.325l1.204-.321c85.99-2.57 171.983-6.074 257.979-7.966a2048.056 2048.056 0 0120.646-42.606c-29.787-.49-59.58-.674-89.367-.307a15527.66 15527.66 0 015.902-82.5c-10.437 16.785-28.787 29.63-54.56 30.512-15.433.541-30.864 1.396-46.297 2.62a18663.41 18663.41 0 00-3.723 52.855 1739.414 1739.414 0 00-30.867 2.15l-5.289.425c4.217-59.473 8.436-116.62 12.653-170.014 2.591-1.107 67.233-6.437 82.468-5.959 25.754-.569 42.256 11.248 50.193 27.423.722-9.202 1.45-18.296 2.17-27.245 42.88.857 85.758 3.636 128.637 6.597 11.834-21.542 23.665-43.259 35.503-65.824 11.223.286 22.446.55 33.669.782 15.677 44.49 31.355 89.52 47.032 132.32 3.263-41.808 6.528-85.496 9.79-131.513 10.291.069 20.578.087 30.868.048a16844.205 16844.205 0 01-5.35 74.445c22.518-23.492 45.036-48.749 67.555-75.486 12.782-.394 25.564-.905 38.35-1.55-.022.35-.049.702-.073 1.054-26.26 30.669-52.52 60.05-78.782 86.932 24.144 28.867 48.282 55.968 72.428 80.897-.05.602-.102 1.203-.147 1.805a960.76 960.76 0 01-38.118 1.465c-20.971-22.658-41.943-46.989-62.914-72.423-1.866 24.706-3.735 48.619-5.601 71.803-15.979-.535-31.957-1.296-47.936-2.196a4737.279 4737.279 0 01-11.413-31.063c-28.525-1.889-57.054-4.19-85.58-6.362a4501.985 4501.985 0 00-16.418 29.932l-.58-.036c-.007.054-.01.111-.016.165-29.236-1.91-58.478-3.577-87.717-4.476-.948 12.827-1.902 25.859-2.854 39.101 155.695 1.964 311.395 24.616 467.09-3.17M380.78 85.946c8.377 24.17 16.758 48.487 25.136 72.485-20.364-1.408-40.728-3-61.095-4.583 11.987-22.349 23.973-44.743 35.959-67.902" fill="#FF0274"/></g></svg>
