<?xml version="1.0" encoding="UTF-8"?>
<svg width="446px" height="172px" viewBox="0 0 446 172" version="1.1" xmlns="http://www.w3.org/2000/svg" xmlns:xlink="http://www.w3.org/1999/xlink">
    <title>Logo</title>
    <g id="Logo" stroke="none" stroke-width="1" fill="none" fill-rule="evenodd">
        <g id="Peak-logo" transform="translate(98.000000, 27.000000)">
            <path d="M250,0 C244.202775,6.15235112 238.40592,12.8748707 232.609282,19.7442074 L231.028386,21.6209849 L229.4475,23.5031341 L223.914469,30.1054063 L222.333619,31.9881118 L220.752776,33.8656928 C216.537203,38.8640462 212.321688,43.7873813 208.106173,48.4728463 C216.156751,57.5148229 224.207329,65.6068703 232.258172,73.3065129 L233.563716,74.551752 C234.21649,75.1727398 234.869265,75.791346 235.522042,76.4078678 L236.827599,77.6382202 L238.133162,78.8635424 L239.438731,80.0843628 L240.744305,81.3012098 L242.049886,82.5146116 L243.355473,83.7250965 L245.313867,85.5365105 L246.619472,86.7420148 C215.43056,92.3138523 184.240972,92.2127483 153.051466,90.9257366 L150.682643,90.8257814 C149.893036,90.7917515 149.103428,90.7570343 148.313821,90.7217027 L145.944998,90.6139371 L143.576177,90.5029216 L141.207356,90.389093 L138.838535,90.2728882 L135.285306,90.095081 L124.842495,89.5613024 C120.492069,89.3389312 113.966446,89.026377 105.265626,88.6236398 L99.9389463,99.8955964 C96.6612492,106.563261 94.2033347,111.640365 92.5652028,115.126908 C75.5025229,115.502711 58.4401747,116.056425 41.3781583,116.631861 L26.0224331,117.151401 C17.4915244,117.438608 8.96069869,117.719531 0.429955887,117.974646 L0,118.089717 L0.629690852,109.879742 L1.25933565,101.615615 L1.88894502,93.3119213 L4.19738136,62.7622056 L4.82696593,54.4666953 L5.2467021,48.9593853 L5.8763339,40.7437682 L6.50600822,32.5955322 C6.57597479,31.6944562 6.64594235,30.794898 6.71591095,29.8969478 C7.44361129,29.7764996 8.1734614,29.6582023 8.90331152,29.5431314 C18.9653542,27.9600987 29.0263219,26.9545719 39.0894394,26.3587838 C59.2905259,25.1670121 79.490724,25.6088271 99.6916489,26.4447778 L102.115764,26.5469044 C102.519783,26.5642144 102.923803,26.5816621 103.327824,26.5992378 L105.75195,26.7061476 L107.287652,23.8611822 C110.87086,17.2157151 114.453451,10.5117883 118.036864,3.58225658 C146.029045,3.27018641 174.021225,2.46120548 202.013405,1.55993715 L210.011171,1.30027022 L230.005586,0.64289241 L238.003351,0.382162172 C242.002234,0.252725997 246.001117,0.124945387 250,0 Z" id="Background-shape" fill="#FFFFFF"></path>
            <path d="M106.237966,64.7827603 C108.669766,60.4369562 111.103703,56.1490818 113.535503,51.873008 C113.291789,51.8547708 113.045936,51.8365337 112.802222,51.8182965 C110.214359,51.6251974 107.627566,51.4363893 105.039703,51.2561634 C97.6149644,50.7380139 90.1891566,50.2853037 82.7644177,49.9752722 C82.4202245,54.38437 82.0760313,58.8610524 81.7307692,63.4106834 C89.4515998,63.7067688 97.1734992,64.1605519 104.893261,64.6905018 C105.34114,64.7205394 105.790087,64.7516499 106.237966,64.7827603 M36.7219125,50.1185477 C36.1923204,57.0345493 35.6627282,64.1473477 35.1331361,71.4461299 C40.6073677,70.9822518 46.0826671,70.6719184 51.5568988,70.4891785 C65.5793455,69.9993491 67.085907,48.8793766 53.1488784,49.2394499 C47.6725113,49.3886694 42.1972119,49.670889 36.7219125,50.1185477 M246.619472,86.7420148 C233.780989,74.894005 220.943581,62.8911333 208.106173,48.4728463 C222.070066,32.9522437 236.033958,14.8215732 250,0 C206.012288,1.37439925 162.024576,3.0918606 118.036864,3.58225658 C113.941535,11.5017214 109.84728,19.1265186 105.75195,26.7061476 C83.5307547,25.7135259 61.3106345,25.0478349 39.0894394,26.3587838 C29.0263219,26.9545719 18.9653542,27.9600987 8.90331152,29.5431314 C8.1734614,29.6582023 7.44361129,29.7764996 6.71591095,29.8969478 C4.47691567,58.6313559 2.23899528,89.0122471 0,118.089717 C0.141885443,118.052077 0.285920665,118.013362 0.429955887,117.974646 C31.14063,117.056229 61.8523789,115.803354 92.5652028,115.126908 C95.0224007,109.897093 97.4806735,104.828593 99.9389463,99.8955964 C89.3007627,99.7203013 78.6604294,99.6547001 68.0222459,99.7859026 C68.723074,89.610186 69.4260519,79.7775316 70.1301047,70.292241 C66.4023871,76.2931391 59.8487845,80.8852243 50.6445039,81.2003252 C45.1324694,81.3939025 39.6215098,81.6993246 34.1094754,82.1370245 C33.6655459,88.3142931 33.2226914,94.6152362 32.7798368,101.032326 C32.1499514,101.069966 31.520066,101.108681 30.8912556,101.149548 C27.846093,101.3442 24.8009304,101.561437 21.7557679,101.801258 C21.1258825,101.851803 20.497072,101.902348 19.8671866,101.952894 C21.3731071,80.6916469 22.8801025,60.2617075 24.386023,41.1739044 C25.311503,40.7781462 48.3979844,38.8724847 53.8390761,39.043478 C63.0369074,38.8402218 68.9305277,43.0645099 71.7650119,48.8470958 C72.0229854,45.5573561 72.2831088,42.3063319 72.5400074,39.1069283 C87.8539612,39.4134258 103.167915,40.4071229 118.481869,41.4653458 C122.708335,33.7641932 126.933727,26.0006657 131.161268,17.9338669 C135.169532,18.0360328 139.177795,18.1306706 143.186059,18.2134787 C148.78516,34.1180096 154.38426,50.2161179 159.983361,65.5173328 C161.148541,50.5710098 162.314797,34.9525431 163.479977,18.5016939 C167.155025,18.5264287 170.828998,18.5328813 174.504046,18.5189007 C173.866636,27.6675818 173.230302,36.5334249 172.592892,45.1325614 C180.635217,36.7345303 188.677542,27.7052219 196.719867,18.146802 C201.284923,18.0059207 205.84998,17.8230977 210.416111,17.5929557 C210.408587,17.7177055 210.398913,17.8435308 210.390314,17.9693561 C201.011901,28.9333627 191.633488,39.4370853 182.254001,49.0471258 C190.876766,59.3669499 199.497382,69.0554967 208.121222,77.9675833 C208.102949,78.1826692 208.084676,78.3977552 208.068552,78.6128411 C203.530368,78.8806232 198.992183,79.0494656 194.455074,79.1365754 C186.965242,71.0364384 179.475411,62.3383624 171.985579,53.2456036 C171.319148,62.0781083 170.651641,70.6266996 169.98521,78.9150369 C164.27862,78.7236104 158.572031,78.4515267 152.865441,78.1299732 C151.50678,74.4724365 150.149195,70.7654301 148.789459,67.0250853 C138.601654,66.3497154 128.412775,65.5270116 118.22497,64.7505513 C116.269746,68.2908662 114.314521,71.8505387 112.361447,75.4510776 C112.291579,75.4467759 112.222786,75.4424742 112.153993,75.4381724 C112.151843,75.4575302 112.150768,75.4779633 112.148619,75.4973211 C101.70714,74.8144232 91.2635114,74.2186351 80.8209578,73.8970816 C80.4823675,78.4827141 80.1416275,83.1414759 79.8019623,87.8755178 C135.407082,88.5777734 191.014352,96.6757596 246.619472,86.7420148 M135.993083,30.7255377 C138.985167,39.3661136 141.978331,48.0595073 144.970414,56.6386419 C137.697599,56.135255 130.424783,55.5661153 123.150888,55.0002093 C127.431619,47.0106949 131.712351,39.0050116 135.993083,30.7255377" fill="#FF0274"></path>
        </g>
    </g>
</svg>