<svg viewBox="0 0 490.3 490.3"><path d="M313.5 152.4L82.7 383.3a17.2 17.2 0 0012.1 29.3c4.4 0 8.8-1.7 12.1-5l230.8-230.8a17.2 17.2 0 00-24.2-24.4zm117.6 39.5c4.4 0 8.8-1.7 12.1-5l25.2-25.2a74.5 74.5 0 000-105.4L434 21.9a74.4 74.4 0 00-105.4 0L303.4 47a17.2 17.2 0 000 24.3L419 187c3.3 3.2 7.7 4.9 12.1 4.9zM353 45.9a40 40 0 0157 0l34.4 34.5a40.3 40.3 0 010 56.9l-13.2 13.2L339.7 59 353 46z"/><path d="M162.8 467.2l243.5-243.5a17.2 17.2 0 00-24.3-24.3L142.7 438.9 37.1 453l14.2-105.6L280 118.9a17.2 17.2 0 00-24.3-24.3L23 327.4a17 17 0 00-4.9 9.8L.1 470.8a17.1 17.1 0 0017 19.4l2.3-.2L153 472a16 16 0 009.8-4.8z"/></svg>