<svg viewBox="0 0 140 140"><path d="M136.033 37.567a2.917 2.917 0 00-1.166-5.075l-4.609-1.167a2.917 2.917 0 01-1.925-4.083l2.567-5.192a2.917 2.917 0 00-3.383-4.083l-11.667 3.266a2.917 2.917 0 01-2.567-.466 29.167 29.167 0 00-17.5-5.834A29.167 29.167 0 0066.617 44.1v2.1a1.458 1.458 0 01-1.284 1.458c-16.391 1.925-32.083-6.416-49-25.9a2.975 2.975 0 00-2.975-.875 2.917 2.917 0 00-1.691 2.45 44.217 44.217 0 002.683 28.7 1.458 1.458 0 01-1.517 2.1L6.3 52.85a2.917 2.917 0 00-3.325 3.442A30.042 30.042 0 0016.8 78.342a1.458 1.458 0 010 2.625l-3.092 1.225a2.917 2.917 0 00-1.516 4.025 25.433 25.433 0 0018.666 14.466 1.458 1.458 0 010 2.742 63.817 63.817 0 01-25.025 4.842 2.974 2.974 0 00-1.166 5.833 117.017 117.017 0 0047.483 11.258 73.383 73.383 0 0040.833-11.666 72.917 72.917 0 0032.434-60.842v-5.075a2.917 2.917 0 011.05-2.217z"/></svg>
