<svg width="23" height="23" viewBox="0 0 23 23"><g fill="none" stroke-linecap="round" stroke-linejoin="round" stroke-width="1.5"><path d="M14.777.536a1.457 1.457 0 011.778 1.497h0l-.071 1.4a2.458 2.458 0 002.575 2.58h0l1.4-.072a1.457 1.457 0 011.495 1.778 1.457 1.457 0 01-.445.761h0l-1.042.94a2.46 2.46 0 000 3.652h0l1.042.94a1.457 1.457 0 01-.199 2.316c-.249.157-.545.24-.854.223h0l-1.4-.07a2.458 2.458 0 00-2.58 2.58h0l.07 1.397a1.457 1.457 0 01-1.773 1.49 1.455 1.455 0 01-.758-.438h0l-.94-1.04a2.459 2.459 0 00-3.65-.001h0l-.945 1.04a1.457 1.457 0 01-2.31-.199 1.455 1.455 0 01-.227-.847h0l.072-1.4a2.458 2.458 0 00-2.58-2.58h0l-1.4.07a1.456 1.456 0 01-1.5-1.775c.065-.287.216-.555.444-.761h0l1.041-.94a2.46 2.46 0 00.001-3.65h0L.981 8.48a1.456 1.456 0 01.198-2.31c.248-.158.543-.24.849-.226h0l1.399.071A2.458 2.458 0 006.01 3.433h0l-.067-1.4A1.457 1.457 0 017.72.54c.286.064.553.215.76.441h0l.939 1.037a2.457 2.457 0 003.649.003h0l.947-1.04c.207-.229.475-.38.762-.445z"/><circle cx="11.244" cy="11.247" r="4"/></g></svg>
