<svg viewBox="0 0 152 87"><path d="M116.4 34.8l6.6-12.2a3.5 3.5 0 116.3 3.3l-6.6 12.3a3.6 3.6 0 11-6.3-3.4zM97 28.5l.8.2c1.6 0 3-1.1 3.5-2.7l3.4-13.5a3.6 3.6 0 10-7-1.8l-3.3 13.5c-.5 2 .7 3.9 2.6 4.3zm-51.8-7.7a3.6 3.6 0 107-1.8L48.6 5.5A3.5 3.5 0 0044.4 3c-2 .5-3 2.5-2.6 4.3l3.4 13.6zm27.5.8c2 0 3.5-1.6 3.5-3.5V4a3.6 3.6 0 00-7 0v14c0 2 1.5 3.5 3.5 3.5zM150.3 66a3.6 3.6 0 01-2.5 6.1c-.9 0-1.7-.3-2.4-1-.2-.1-5.2-4.8-12.9-10.6-16.1 11.7-41.1 26.4-66 26.4C42 86.8 24.1 73 13 61.3c-4 5-6.4 8.8-6.5 9a3.6 3.6 0 01-4.8 1.2 3.5 3.5 0 01-1.3-4.8c.3-.5 3.1-5 7.8-10.8A94 94 0 01.5 45c-1-1.7-.4-3.8 1.3-4.8 1.7-1 3.8-.4 4.8 1.3.1 0 2.5 4 6.5 9 11-11.8 29-25.5 53.3-25.5 25 0 50 14.6 66.1 26.4a186 186 0 0012.9-10.7 3.6 3.6 0 015 .1 3.6 3.6 0 01-.1 5c-.6.5-5 4.7-11.9 10 6.8 5.4 11.4 9.6 11.9 10.1zm-24-10C111 44.9 88.4 32 66.5 32S28 45 18 55.9c10.2 10.8 26.7 23.8 48.5 23.8 22 0 44.5-12.9 60-23.8zM19 36a3.5 3.5 0 003 1.9 3.6 3.6 0 003.2-5.3l-6.6-12.2a3.6 3.6 0 00-6.2 3.4L19 36.1zm31 20a18 18 0 1036 0 18 18 0 00-36 0z"/></svg>